<mxfile host="app.diagrams.net" modified="2023-11-30T20:09:58.979Z" agent="Mozilla/5.0 (Windows NT 10.0; Win64; x64) AppleWebKit/537.36 (KHTML, like Gecko) Chrome/119.0.0.0 Safari/537.36" etag="Cn3PZkVpg4MxXHTFqQc4" version="22.1.5" type="device">
  <diagram name="Página-1" id="xTIrNVlSx1Ji1RsFhHm7">
    <mxGraphModel dx="1781" dy="1786" grid="1" gridSize="10" guides="1" tooltips="1" connect="1" arrows="1" fold="1" page="1" pageScale="1" pageWidth="827" pageHeight="1169" math="0" shadow="0">
      <root>
        <mxCell id="0" />
        <mxCell id="1" parent="0" />
        <mxCell id="c2drC5668DIk2M-_3hR5-20" style="rounded=0;orthogonalLoop=1;jettySize=auto;html=1;entryX=0;entryY=0.5;entryDx=0;entryDy=0;endArrow=none;endFill=0;" parent="1" source="hJ4_n9fYIYqjUkPoMNpg-66" target="c2drC5668DIk2M-_3hR5-19" edge="1">
          <mxGeometry relative="1" as="geometry" />
        </mxCell>
        <mxCell id="c2drC5668DIk2M-_3hR5-34" style="rounded=0;orthogonalLoop=1;jettySize=auto;html=1;exitX=0.5;exitY=0;exitDx=0;exitDy=0;entryX=0.5;entryY=1;entryDx=0;entryDy=0;endArrow=none;endFill=0;" parent="1" source="c2drC5668DIk2M-_3hR5-1" target="c2drC5668DIk2M-_3hR5-6" edge="1">
          <mxGeometry relative="1" as="geometry" />
        </mxCell>
        <mxCell id="hJ4_n9fYIYqjUkPoMNpg-89" style="rounded=0;orthogonalLoop=1;jettySize=auto;html=1;exitX=0;exitY=0.5;exitDx=0;exitDy=0;entryX=0.5;entryY=0;entryDx=0;entryDy=0;endArrow=none;endFill=0;" parent="1" source="c2drC5668DIk2M-_3hR5-1" target="hJ4_n9fYIYqjUkPoMNpg-88" edge="1">
          <mxGeometry relative="1" as="geometry" />
        </mxCell>
        <mxCell id="c2drC5668DIk2M-_3hR5-1" value="Alimento fundamental" style="whiteSpace=wrap;html=1;align=center;" parent="1" vertex="1">
          <mxGeometry x="257.5" y="180" width="100" height="40" as="geometry" />
        </mxCell>
        <mxCell id="Ia-MXTWX2ccG5Ajcz-1V-3" style="edgeStyle=orthogonalEdgeStyle;rounded=0;orthogonalLoop=1;jettySize=auto;html=1;exitX=1;exitY=0.5;exitDx=0;exitDy=0;" parent="1" source="c2drC5668DIk2M-_3hR5-6" target="Ia-MXTWX2ccG5Ajcz-1V-2" edge="1">
          <mxGeometry relative="1" as="geometry" />
        </mxCell>
        <mxCell id="c2drC5668DIk2M-_3hR5-6" value="Tiene" style="shape=rhombus;perimeter=rhombusPerimeter;whiteSpace=wrap;html=1;align=center;" parent="1" vertex="1">
          <mxGeometry x="270" y="80" width="80" height="40" as="geometry" />
        </mxCell>
        <mxCell id="c2drC5668DIk2M-_3hR5-10" value="n" style="text;html=1;align=center;verticalAlign=middle;resizable=0;points=[];autosize=1;strokeColor=none;fillColor=none;" parent="1" vertex="1">
          <mxGeometry x="315" y="60" width="30" height="30" as="geometry" />
        </mxCell>
        <mxCell id="c2drC5668DIk2M-_3hR5-11" value="m" style="text;html=1;align=center;verticalAlign=middle;resizable=0;points=[];autosize=1;strokeColor=none;fillColor=none;" parent="1" vertex="1">
          <mxGeometry x="315" y="110" width="30" height="30" as="geometry" />
        </mxCell>
        <mxCell id="c2drC5668DIk2M-_3hR5-21" style="rounded=0;orthogonalLoop=1;jettySize=auto;html=1;exitX=1;exitY=0.5;exitDx=0;exitDy=0;endArrow=none;endFill=0;" parent="1" source="c2drC5668DIk2M-_3hR5-19" target="hJ4_n9fYIYqjUkPoMNpg-53" edge="1">
          <mxGeometry relative="1" as="geometry">
            <mxPoint x="476" y="455" as="targetPoint" />
          </mxGeometry>
        </mxCell>
        <mxCell id="c2drC5668DIk2M-_3hR5-19" value="forma" style="shape=rhombus;perimeter=rhombusPerimeter;whiteSpace=wrap;html=1;align=center;" parent="1" vertex="1">
          <mxGeometry x="387" y="422.5" width="70" height="30" as="geometry" />
        </mxCell>
        <mxCell id="c2drC5668DIk2M-_3hR5-22" value="n" style="text;html=1;align=center;verticalAlign=middle;resizable=0;points=[];autosize=1;strokeColor=none;fillColor=none;" parent="1" vertex="1">
          <mxGeometry x="361" y="407.5" width="30" height="30" as="geometry" />
        </mxCell>
        <mxCell id="c2drC5668DIk2M-_3hR5-23" value="m" style="text;html=1;align=center;verticalAlign=middle;resizable=0;points=[];autosize=1;strokeColor=none;fillColor=none;" parent="1" vertex="1">
          <mxGeometry x="437" y="407.5" width="30" height="30" as="geometry" />
        </mxCell>
        <mxCell id="xt_DgVhSho2lv_pMH74G-26" style="rounded=0;orthogonalLoop=1;jettySize=auto;html=1;exitX=1;exitY=0.5;exitDx=0;exitDy=0;" parent="1" source="c2drC5668DIk2M-_3hR5-41" target="xt_DgVhSho2lv_pMH74G-19" edge="1">
          <mxGeometry relative="1" as="geometry" />
        </mxCell>
        <mxCell id="c2drC5668DIk2M-_3hR5-41" value="D" style="ellipse;whiteSpace=wrap;html=1;align=center;" parent="1" vertex="1">
          <mxGeometry x="175" y="560" width="30" height="30" as="geometry" />
        </mxCell>
        <mxCell id="xt_DgVhSho2lv_pMH74G-1" style="rounded=0;orthogonalLoop=1;jettySize=auto;html=1;exitX=0;exitY=0.5;exitDx=0;exitDy=0;entryX=0.75;entryY=0;entryDx=0;entryDy=0;endArrow=none;endFill=0;" parent="1" source="c2drC5668DIk2M-_3hR5-45" target="hJ4_n9fYIYqjUkPoMNpg-66" edge="1">
          <mxGeometry relative="1" as="geometry" />
        </mxCell>
        <mxCell id="xt_DgVhSho2lv_pMH74G-2" style="rounded=0;orthogonalLoop=1;jettySize=auto;html=1;exitX=1;exitY=0.5;exitDx=0;exitDy=0;entryX=0;entryY=0;entryDx=0;entryDy=0;endArrow=none;endFill=0;" parent="1" source="c2drC5668DIk2M-_3hR5-45" target="xt_DgVhSho2lv_pMH74G-10" edge="1">
          <mxGeometry relative="1" as="geometry">
            <mxPoint x="485.0000000000002" y="290" as="sourcePoint" />
            <mxPoint x="470" y="360" as="targetPoint" />
          </mxGeometry>
        </mxCell>
        <mxCell id="c2drC5668DIk2M-_3hR5-45" value="está" style="shape=rhombus;perimeter=rhombusPerimeter;whiteSpace=wrap;html=1;align=center;" parent="1" vertex="1">
          <mxGeometry x="391" y="295" width="70" height="30" as="geometry" />
        </mxCell>
        <mxCell id="c2drC5668DIk2M-_3hR5-82" style="rounded=0;orthogonalLoop=1;jettySize=auto;html=1;entryX=0;entryY=0.5;entryDx=0;entryDy=0;endArrow=none;endFill=0;" parent="1" source="xt_DgVhSho2lv_pMH74G-19" target="c2drC5668DIk2M-_3hR5-81" edge="1">
          <mxGeometry relative="1" as="geometry">
            <mxPoint x="252.5" y="640" as="sourcePoint" />
          </mxGeometry>
        </mxCell>
        <mxCell id="c2drC5668DIk2M-_3hR5-81" value="" style="shape=rhombus;perimeter=rhombusPerimeter;whiteSpace=wrap;html=1;align=center;" parent="1" vertex="1">
          <mxGeometry x="467" y="657.5" width="70" height="35" as="geometry" />
        </mxCell>
        <mxCell id="hJ4_n9fYIYqjUkPoMNpg-20" value="Nutriente" style="shape=table;startSize=30;container=1;collapsible=1;childLayout=tableLayout;fixedRows=1;rowLines=0;fontStyle=1;align=center;resizeLast=1;html=1;" parent="1" vertex="1">
          <mxGeometry x="60" y="-120" width="167.5" height="230" as="geometry" />
        </mxCell>
        <mxCell id="hJ4_n9fYIYqjUkPoMNpg-21" value="" style="shape=tableRow;horizontal=0;startSize=0;swimlaneHead=0;swimlaneBody=0;fillColor=none;collapsible=0;dropTarget=0;points=[[0,0.5],[1,0.5]];portConstraint=eastwest;top=0;left=0;right=0;bottom=1;" parent="hJ4_n9fYIYqjUkPoMNpg-20" vertex="1">
          <mxGeometry y="30" width="167.5" height="30" as="geometry" />
        </mxCell>
        <mxCell id="hJ4_n9fYIYqjUkPoMNpg-22" value="PK" style="shape=partialRectangle;connectable=0;fillColor=none;top=0;left=0;bottom=0;right=0;fontStyle=1;overflow=hidden;whiteSpace=wrap;html=1;" parent="hJ4_n9fYIYqjUkPoMNpg-21" vertex="1">
          <mxGeometry width="30" height="30" as="geometry">
            <mxRectangle width="30" height="30" as="alternateBounds" />
          </mxGeometry>
        </mxCell>
        <mxCell id="hJ4_n9fYIYqjUkPoMNpg-23" value="id" style="shape=partialRectangle;connectable=0;fillColor=none;top=0;left=0;bottom=0;right=0;align=left;spacingLeft=6;fontStyle=5;overflow=hidden;whiteSpace=wrap;html=1;" parent="hJ4_n9fYIYqjUkPoMNpg-21" vertex="1">
          <mxGeometry x="30" width="137.5" height="30" as="geometry">
            <mxRectangle width="137.5" height="30" as="alternateBounds" />
          </mxGeometry>
        </mxCell>
        <mxCell id="hJ4_n9fYIYqjUkPoMNpg-24" value="" style="shape=tableRow;horizontal=0;startSize=0;swimlaneHead=0;swimlaneBody=0;fillColor=none;collapsible=0;dropTarget=0;points=[[0,0.5],[1,0.5]];portConstraint=eastwest;top=0;left=0;right=0;bottom=0;" parent="hJ4_n9fYIYqjUkPoMNpg-20" vertex="1">
          <mxGeometry y="60" width="167.5" height="120" as="geometry" />
        </mxCell>
        <mxCell id="hJ4_n9fYIYqjUkPoMNpg-25" value="" style="shape=partialRectangle;connectable=0;fillColor=none;top=0;left=0;bottom=0;right=0;editable=1;overflow=hidden;whiteSpace=wrap;html=1;" parent="hJ4_n9fYIYqjUkPoMNpg-24" vertex="1">
          <mxGeometry width="30" height="120" as="geometry">
            <mxRectangle width="30" height="120" as="alternateBounds" />
          </mxGeometry>
        </mxCell>
        <mxCell id="hJ4_n9fYIYqjUkPoMNpg-26" value="Nombre&lt;br&gt;&lt;br&gt;Categoría&lt;br&gt;&lt;br&gt;Unidad de medida" style="shape=partialRectangle;connectable=0;fillColor=none;top=0;left=0;bottom=0;right=0;align=left;spacingLeft=6;overflow=hidden;whiteSpace=wrap;html=1;" parent="hJ4_n9fYIYqjUkPoMNpg-24" vertex="1">
          <mxGeometry x="30" width="137.5" height="120" as="geometry">
            <mxRectangle width="137.5" height="120" as="alternateBounds" />
          </mxGeometry>
        </mxCell>
        <mxCell id="hJ4_n9fYIYqjUkPoMNpg-27" value="" style="shape=tableRow;horizontal=0;startSize=0;swimlaneHead=0;swimlaneBody=0;fillColor=none;collapsible=0;dropTarget=0;points=[[0,0.5],[1,0.5]];portConstraint=eastwest;top=0;left=0;right=0;bottom=0;" parent="hJ4_n9fYIYqjUkPoMNpg-20" vertex="1">
          <mxGeometry y="180" width="167.5" height="30" as="geometry" />
        </mxCell>
        <mxCell id="hJ4_n9fYIYqjUkPoMNpg-28" value="" style="shape=partialRectangle;connectable=0;fillColor=none;top=0;left=0;bottom=0;right=0;editable=1;overflow=hidden;whiteSpace=wrap;html=1;" parent="hJ4_n9fYIYqjUkPoMNpg-27" vertex="1">
          <mxGeometry width="30" height="30" as="geometry">
            <mxRectangle width="30" height="30" as="alternateBounds" />
          </mxGeometry>
        </mxCell>
        <mxCell id="hJ4_n9fYIYqjUkPoMNpg-29" value="" style="shape=partialRectangle;connectable=0;fillColor=none;top=0;left=0;bottom=0;right=0;align=left;spacingLeft=6;overflow=hidden;whiteSpace=wrap;html=1;" parent="hJ4_n9fYIYqjUkPoMNpg-27" vertex="1">
          <mxGeometry x="30" width="137.5" height="30" as="geometry">
            <mxRectangle width="137.5" height="30" as="alternateBounds" />
          </mxGeometry>
        </mxCell>
        <mxCell id="hJ4_n9fYIYqjUkPoMNpg-30" value="" style="shape=tableRow;horizontal=0;startSize=0;swimlaneHead=0;swimlaneBody=0;fillColor=none;collapsible=0;dropTarget=0;points=[[0,0.5],[1,0.5]];portConstraint=eastwest;top=0;left=0;right=0;bottom=0;" parent="hJ4_n9fYIYqjUkPoMNpg-20" vertex="1">
          <mxGeometry y="210" width="167.5" height="20" as="geometry" />
        </mxCell>
        <mxCell id="hJ4_n9fYIYqjUkPoMNpg-31" value="" style="shape=partialRectangle;connectable=0;fillColor=none;top=0;left=0;bottom=0;right=0;editable=1;overflow=hidden;whiteSpace=wrap;html=1;" parent="hJ4_n9fYIYqjUkPoMNpg-30" vertex="1">
          <mxGeometry width="30" height="20" as="geometry">
            <mxRectangle width="30" height="20" as="alternateBounds" />
          </mxGeometry>
        </mxCell>
        <mxCell id="hJ4_n9fYIYqjUkPoMNpg-32" value="" style="shape=partialRectangle;connectable=0;fillColor=none;top=0;left=0;bottom=0;right=0;align=left;spacingLeft=6;overflow=hidden;whiteSpace=wrap;html=1;" parent="hJ4_n9fYIYqjUkPoMNpg-30" vertex="1">
          <mxGeometry x="30" width="137.5" height="20" as="geometry">
            <mxRectangle width="137.5" height="20" as="alternateBounds" />
          </mxGeometry>
        </mxCell>
        <mxCell id="hJ4_n9fYIYqjUkPoMNpg-34" style="rounded=0;orthogonalLoop=1;jettySize=auto;html=1;exitX=1;exitY=0.5;exitDx=0;exitDy=0;entryX=0.5;entryY=0;entryDx=0;entryDy=0;endArrow=none;endFill=0;" parent="1" source="hJ4_n9fYIYqjUkPoMNpg-24" target="c2drC5668DIk2M-_3hR5-6" edge="1">
          <mxGeometry relative="1" as="geometry" />
        </mxCell>
        <mxCell id="hJ4_n9fYIYqjUkPoMNpg-53" value="Receta&amp;nbsp;" style="shape=table;startSize=30;container=1;collapsible=1;childLayout=tableLayout;fixedRows=1;rowLines=0;fontStyle=1;align=center;resizeLast=1;html=1;" parent="1" vertex="1">
          <mxGeometry x="506" y="460" width="180" height="120" as="geometry" />
        </mxCell>
        <mxCell id="hJ4_n9fYIYqjUkPoMNpg-54" value="" style="shape=tableRow;horizontal=0;startSize=0;swimlaneHead=0;swimlaneBody=0;fillColor=none;collapsible=0;dropTarget=0;points=[[0,0.5],[1,0.5]];portConstraint=eastwest;top=0;left=0;right=0;bottom=1;" parent="hJ4_n9fYIYqjUkPoMNpg-53" vertex="1">
          <mxGeometry y="30" width="180" height="30" as="geometry" />
        </mxCell>
        <mxCell id="hJ4_n9fYIYqjUkPoMNpg-55" value="PK" style="shape=partialRectangle;connectable=0;fillColor=none;top=0;left=0;bottom=0;right=0;fontStyle=1;overflow=hidden;whiteSpace=wrap;html=1;" parent="hJ4_n9fYIYqjUkPoMNpg-54" vertex="1">
          <mxGeometry width="30" height="30" as="geometry">
            <mxRectangle width="30" height="30" as="alternateBounds" />
          </mxGeometry>
        </mxCell>
        <mxCell id="hJ4_n9fYIYqjUkPoMNpg-56" value="Nombre" style="shape=partialRectangle;connectable=0;fillColor=none;top=0;left=0;bottom=0;right=0;align=left;spacingLeft=6;fontStyle=5;overflow=hidden;whiteSpace=wrap;html=1;" parent="hJ4_n9fYIYqjUkPoMNpg-54" vertex="1">
          <mxGeometry x="30" width="150" height="30" as="geometry">
            <mxRectangle width="150" height="30" as="alternateBounds" />
          </mxGeometry>
        </mxCell>
        <mxCell id="hJ4_n9fYIYqjUkPoMNpg-57" value="" style="shape=tableRow;horizontal=0;startSize=0;swimlaneHead=0;swimlaneBody=0;fillColor=none;collapsible=0;dropTarget=0;points=[[0,0.5],[1,0.5]];portConstraint=eastwest;top=0;left=0;right=0;bottom=0;" parent="hJ4_n9fYIYqjUkPoMNpg-53" vertex="1">
          <mxGeometry y="60" width="180" height="60" as="geometry" />
        </mxCell>
        <mxCell id="hJ4_n9fYIYqjUkPoMNpg-58" value="" style="shape=partialRectangle;connectable=0;fillColor=none;top=0;left=0;bottom=0;right=0;editable=1;overflow=hidden;whiteSpace=wrap;html=1;" parent="hJ4_n9fYIYqjUkPoMNpg-57" vertex="1">
          <mxGeometry width="30" height="60" as="geometry">
            <mxRectangle width="30" height="60" as="alternateBounds" />
          </mxGeometry>
        </mxCell>
        <mxCell id="hJ4_n9fYIYqjUkPoMNpg-59" value="&lt;div&gt;&lt;br&gt;&lt;/div&gt;&lt;div&gt;- Preparación&lt;/div&gt;&lt;div&gt;- Tiempo&lt;/div&gt;&lt;div&gt;- Dificultad&lt;/div&gt;" style="shape=partialRectangle;connectable=0;fillColor=none;top=0;left=0;bottom=0;right=0;align=left;spacingLeft=6;overflow=hidden;whiteSpace=wrap;html=1;" parent="hJ4_n9fYIYqjUkPoMNpg-57" vertex="1">
          <mxGeometry x="30" width="150" height="60" as="geometry">
            <mxRectangle width="150" height="60" as="alternateBounds" />
          </mxGeometry>
        </mxCell>
        <mxCell id="hJ4_n9fYIYqjUkPoMNpg-95" style="rounded=0;orthogonalLoop=1;jettySize=auto;html=1;exitX=0;exitY=0.25;exitDx=0;exitDy=0;entryX=1;entryY=0.5;entryDx=0;entryDy=0;endArrow=none;endFill=0;" parent="1" source="hJ4_n9fYIYqjUkPoMNpg-66" target="hJ4_n9fYIYqjUkPoMNpg-93" edge="1">
          <mxGeometry relative="1" as="geometry" />
        </mxCell>
        <mxCell id="hJ4_n9fYIYqjUkPoMNpg-66" value="Porción" style="shape=table;startSize=30;container=1;collapsible=1;childLayout=tableLayout;fixedRows=1;rowLines=0;fontStyle=1;align=center;resizeLast=1;html=1;" parent="1" vertex="1">
          <mxGeometry x="160" y="380" width="150" height="120" as="geometry">
            <mxRectangle x="375" y="-90" width="90" height="30" as="alternateBounds" />
          </mxGeometry>
        </mxCell>
        <mxCell id="hJ4_n9fYIYqjUkPoMNpg-67" value="" style="shape=tableRow;horizontal=0;startSize=0;swimlaneHead=0;swimlaneBody=0;fillColor=none;collapsible=0;dropTarget=0;points=[[0,0.5],[1,0.5]];portConstraint=eastwest;top=0;left=0;right=0;bottom=1;" parent="hJ4_n9fYIYqjUkPoMNpg-66" vertex="1">
          <mxGeometry y="30" width="150" height="30" as="geometry" />
        </mxCell>
        <mxCell id="hJ4_n9fYIYqjUkPoMNpg-68" value="PK" style="shape=partialRectangle;connectable=0;fillColor=none;top=0;left=0;bottom=0;right=0;fontStyle=1;overflow=hidden;whiteSpace=wrap;html=1;" parent="hJ4_n9fYIYqjUkPoMNpg-67" vertex="1">
          <mxGeometry width="30" height="30" as="geometry">
            <mxRectangle width="30" height="30" as="alternateBounds" />
          </mxGeometry>
        </mxCell>
        <mxCell id="hJ4_n9fYIYqjUkPoMNpg-69" value="UniqueID" style="shape=partialRectangle;connectable=0;fillColor=none;top=0;left=0;bottom=0;right=0;align=left;spacingLeft=6;fontStyle=5;overflow=hidden;whiteSpace=wrap;html=1;" parent="hJ4_n9fYIYqjUkPoMNpg-67" vertex="1">
          <mxGeometry x="30" width="120" height="30" as="geometry">
            <mxRectangle width="120" height="30" as="alternateBounds" />
          </mxGeometry>
        </mxCell>
        <mxCell id="hJ4_n9fYIYqjUkPoMNpg-70" value="" style="shape=tableRow;horizontal=0;startSize=0;swimlaneHead=0;swimlaneBody=0;fillColor=none;collapsible=0;dropTarget=0;points=[[0,0.5],[1,0.5]];portConstraint=eastwest;top=0;left=0;right=0;bottom=0;" parent="hJ4_n9fYIYqjUkPoMNpg-66" vertex="1">
          <mxGeometry y="60" width="150" height="60" as="geometry" />
        </mxCell>
        <mxCell id="hJ4_n9fYIYqjUkPoMNpg-71" value="" style="shape=partialRectangle;connectable=0;fillColor=none;top=0;left=0;bottom=0;right=0;editable=1;overflow=hidden;whiteSpace=wrap;html=1;" parent="hJ4_n9fYIYqjUkPoMNpg-70" vertex="1">
          <mxGeometry width="30" height="60" as="geometry">
            <mxRectangle width="30" height="60" as="alternateBounds" />
          </mxGeometry>
        </mxCell>
        <mxCell id="hJ4_n9fYIYqjUkPoMNpg-72" value="- Cantidad&lt;br&gt;- Unidad de medida&lt;br&gt;- Peso en gramos" style="shape=partialRectangle;connectable=0;fillColor=none;top=0;left=0;bottom=0;right=0;align=left;spacingLeft=6;overflow=hidden;whiteSpace=wrap;html=1;" parent="hJ4_n9fYIYqjUkPoMNpg-70" vertex="1">
          <mxGeometry x="30" width="120" height="60" as="geometry">
            <mxRectangle width="120" height="60" as="alternateBounds" />
          </mxGeometry>
        </mxCell>
        <mxCell id="hJ4_n9fYIYqjUkPoMNpg-90" style="rounded=0;orthogonalLoop=1;jettySize=auto;html=1;exitX=0.5;exitY=1;exitDx=0;exitDy=0;entryX=0.5;entryY=0;entryDx=0;entryDy=0;endArrow=none;endFill=0;" parent="1" source="hJ4_n9fYIYqjUkPoMNpg-88" target="hJ4_n9fYIYqjUkPoMNpg-66" edge="1">
          <mxGeometry relative="1" as="geometry" />
        </mxCell>
        <mxCell id="hJ4_n9fYIYqjUkPoMNpg-88" value="tiene" style="shape=rhombus;perimeter=rhombusPerimeter;whiteSpace=wrap;html=1;align=center;" parent="1" vertex="1">
          <mxGeometry x="192.5" y="270" width="60" height="30" as="geometry" />
        </mxCell>
        <mxCell id="hJ4_n9fYIYqjUkPoMNpg-91" value="1" style="text;html=1;align=center;verticalAlign=middle;resizable=0;points=[];autosize=1;strokeColor=none;fillColor=none;" parent="1" vertex="1">
          <mxGeometry x="200" y="240" width="30" height="30" as="geometry" />
        </mxCell>
        <mxCell id="hJ4_n9fYIYqjUkPoMNpg-92" value="n" style="text;html=1;align=center;verticalAlign=middle;resizable=0;points=[];autosize=1;strokeColor=none;fillColor=none;" parent="1" vertex="1">
          <mxGeometry x="200" y="300" width="30" height="30" as="geometry" />
        </mxCell>
        <mxCell id="hJ4_n9fYIYqjUkPoMNpg-96" style="rounded=0;orthogonalLoop=1;jettySize=auto;html=1;exitX=0;exitY=0.5;exitDx=0;exitDy=0;entryX=1;entryY=0.25;entryDx=0;entryDy=0;endArrow=none;endFill=0;" parent="1" source="hJ4_n9fYIYqjUkPoMNpg-93" target="hJ4_n9fYIYqjUkPoMNpg-81" edge="1">
          <mxGeometry relative="1" as="geometry" />
        </mxCell>
        <mxCell id="xt_DgVhSho2lv_pMH74G-57" style="rounded=0;orthogonalLoop=1;jettySize=auto;html=1;exitX=0.5;exitY=1;exitDx=0;exitDy=0;entryX=0.5;entryY=0;entryDx=0;entryDy=0;endArrow=none;endFill=0;" parent="1" source="hJ4_n9fYIYqjUkPoMNpg-93" target="xt_DgVhSho2lv_pMH74G-58" edge="1">
          <mxGeometry relative="1" as="geometry">
            <mxPoint x="70" y="460" as="targetPoint" />
          </mxGeometry>
        </mxCell>
        <mxCell id="hJ4_n9fYIYqjUkPoMNpg-93" value="está" style="shape=rhombus;perimeter=rhombusPerimeter;whiteSpace=wrap;html=1;align=center;" parent="1" vertex="1">
          <mxGeometry x="50" y="397.5" width="65" height="30" as="geometry" />
        </mxCell>
        <mxCell id="hJ4_n9fYIYqjUkPoMNpg-81" value="Despensa" style="shape=table;startSize=20;container=1;collapsible=1;childLayout=tableLayout;fixedRows=1;rowLines=0;fontStyle=1;align=center;resizeLast=1;html=1;" parent="1" vertex="1">
          <mxGeometry x="-170" y="380" width="160" height="130" as="geometry" />
        </mxCell>
        <mxCell id="hJ4_n9fYIYqjUkPoMNpg-82" value="" style="shape=tableRow;horizontal=0;startSize=0;swimlaneHead=0;swimlaneBody=0;fillColor=none;collapsible=0;dropTarget=0;points=[[0,0.5],[1,0.5]];portConstraint=eastwest;top=0;left=0;right=0;bottom=1;" parent="hJ4_n9fYIYqjUkPoMNpg-81" vertex="1">
          <mxGeometry y="20" width="160" height="30" as="geometry" />
        </mxCell>
        <mxCell id="hJ4_n9fYIYqjUkPoMNpg-83" value="PK" style="shape=partialRectangle;connectable=0;fillColor=none;top=0;left=0;bottom=0;right=0;fontStyle=1;overflow=hidden;whiteSpace=wrap;html=1;" parent="hJ4_n9fYIYqjUkPoMNpg-82" vertex="1">
          <mxGeometry width="30" height="30" as="geometry">
            <mxRectangle width="30" height="30" as="alternateBounds" />
          </mxGeometry>
        </mxCell>
        <mxCell id="hJ4_n9fYIYqjUkPoMNpg-84" value="UniqueID" style="shape=partialRectangle;connectable=0;fillColor=none;top=0;left=0;bottom=0;right=0;align=left;spacingLeft=6;fontStyle=5;overflow=hidden;whiteSpace=wrap;html=1;" parent="hJ4_n9fYIYqjUkPoMNpg-82" vertex="1">
          <mxGeometry x="30" width="130" height="30" as="geometry">
            <mxRectangle width="130" height="30" as="alternateBounds" />
          </mxGeometry>
        </mxCell>
        <mxCell id="hJ4_n9fYIYqjUkPoMNpg-85" value="" style="shape=tableRow;horizontal=0;startSize=0;swimlaneHead=0;swimlaneBody=0;fillColor=none;collapsible=0;dropTarget=0;points=[[0,0.5],[1,0.5]];portConstraint=eastwest;top=0;left=0;right=0;bottom=0;" parent="hJ4_n9fYIYqjUkPoMNpg-81" vertex="1">
          <mxGeometry y="50" width="160" height="70" as="geometry" />
        </mxCell>
        <mxCell id="hJ4_n9fYIYqjUkPoMNpg-86" value="" style="shape=partialRectangle;connectable=0;fillColor=none;top=0;left=0;bottom=0;right=0;editable=1;overflow=hidden;whiteSpace=wrap;html=1;" parent="hJ4_n9fYIYqjUkPoMNpg-85" vertex="1">
          <mxGeometry width="30" height="70" as="geometry">
            <mxRectangle width="30" height="70" as="alternateBounds" />
          </mxGeometry>
        </mxCell>
        <mxCell id="hJ4_n9fYIYqjUkPoMNpg-87" value="" style="shape=partialRectangle;connectable=0;fillColor=none;top=0;left=0;bottom=0;right=0;align=left;spacingLeft=6;overflow=hidden;whiteSpace=wrap;html=1;" parent="hJ4_n9fYIYqjUkPoMNpg-85" vertex="1">
          <mxGeometry x="30" width="130" height="70" as="geometry">
            <mxRectangle width="130" height="70" as="alternateBounds" />
          </mxGeometry>
        </mxCell>
        <mxCell id="xt_DgVhSho2lv_pMH74G-10" value="Lista de la compra" style="shape=table;startSize=30;container=1;collapsible=1;childLayout=tableLayout;fixedRows=1;rowLines=0;fontStyle=1;align=center;resizeLast=1;html=1;" parent="1" vertex="1">
          <mxGeometry x="526" y="260" width="160" height="130" as="geometry" />
        </mxCell>
        <mxCell id="xt_DgVhSho2lv_pMH74G-11" value="" style="shape=tableRow;horizontal=0;startSize=0;swimlaneHead=0;swimlaneBody=0;fillColor=none;collapsible=0;dropTarget=0;points=[[0,0.5],[1,0.5]];portConstraint=eastwest;top=0;left=0;right=0;bottom=1;" parent="xt_DgVhSho2lv_pMH74G-10" vertex="1">
          <mxGeometry y="30" width="160" height="30" as="geometry" />
        </mxCell>
        <mxCell id="xt_DgVhSho2lv_pMH74G-12" value="PK" style="shape=partialRectangle;connectable=0;fillColor=none;top=0;left=0;bottom=0;right=0;fontStyle=1;overflow=hidden;whiteSpace=wrap;html=1;" parent="xt_DgVhSho2lv_pMH74G-11" vertex="1">
          <mxGeometry width="30" height="30" as="geometry">
            <mxRectangle width="30" height="30" as="alternateBounds" />
          </mxGeometry>
        </mxCell>
        <mxCell id="xt_DgVhSho2lv_pMH74G-13" value="UniqueID" style="shape=partialRectangle;connectable=0;fillColor=none;top=0;left=0;bottom=0;right=0;align=left;spacingLeft=6;fontStyle=5;overflow=hidden;whiteSpace=wrap;html=1;" parent="xt_DgVhSho2lv_pMH74G-11" vertex="1">
          <mxGeometry x="30" width="130" height="30" as="geometry">
            <mxRectangle width="130" height="30" as="alternateBounds" />
          </mxGeometry>
        </mxCell>
        <mxCell id="xt_DgVhSho2lv_pMH74G-14" value="" style="shape=tableRow;horizontal=0;startSize=0;swimlaneHead=0;swimlaneBody=0;fillColor=none;collapsible=0;dropTarget=0;points=[[0,0.5],[1,0.5]];portConstraint=eastwest;top=0;left=0;right=0;bottom=0;" parent="xt_DgVhSho2lv_pMH74G-10" vertex="1">
          <mxGeometry y="60" width="160" height="70" as="geometry" />
        </mxCell>
        <mxCell id="xt_DgVhSho2lv_pMH74G-15" value="" style="shape=partialRectangle;connectable=0;fillColor=none;top=0;left=0;bottom=0;right=0;editable=1;overflow=hidden;whiteSpace=wrap;html=1;" parent="xt_DgVhSho2lv_pMH74G-14" vertex="1">
          <mxGeometry width="30" height="70" as="geometry">
            <mxRectangle width="30" height="70" as="alternateBounds" />
          </mxGeometry>
        </mxCell>
        <mxCell id="xt_DgVhSho2lv_pMH74G-16" value="- Extras (múltiple)&lt;br&gt;- Fecha de creación&lt;br&gt;- Fecha de compra" style="shape=partialRectangle;connectable=0;fillColor=none;top=0;left=0;bottom=0;right=0;align=left;spacingLeft=6;overflow=hidden;whiteSpace=wrap;html=1;" parent="xt_DgVhSho2lv_pMH74G-14" vertex="1">
          <mxGeometry x="30" width="130" height="70" as="geometry">
            <mxRectangle width="130" height="70" as="alternateBounds" />
          </mxGeometry>
        </mxCell>
        <mxCell id="xt_DgVhSho2lv_pMH74G-17" style="rounded=0;orthogonalLoop=1;jettySize=auto;html=1;exitX=0;exitY=0.5;exitDx=0;exitDy=0;entryX=0.5;entryY=0;entryDx=0;entryDy=0;edgeStyle=orthogonalEdgeStyle;" parent="1" source="hJ4_n9fYIYqjUkPoMNpg-70" target="c2drC5668DIk2M-_3hR5-41" edge="1">
          <mxGeometry relative="1" as="geometry" />
        </mxCell>
        <mxCell id="xt_DgVhSho2lv_pMH74G-18" style="rounded=0;orthogonalLoop=1;jettySize=auto;html=1;entryX=0.5;entryY=0;entryDx=0;entryDy=0;endArrow=none;endFill=0;" parent="1" source="hJ4_n9fYIYqjUkPoMNpg-57" target="c2drC5668DIk2M-_3hR5-81" edge="1">
          <mxGeometry relative="1" as="geometry">
            <mxPoint x="740" y="370" as="sourcePoint" />
          </mxGeometry>
        </mxCell>
        <mxCell id="xt_DgVhSho2lv_pMH74G-19" value="Resultado" style="shape=table;startSize=30;container=1;collapsible=1;childLayout=tableLayout;fixedRows=1;rowLines=0;fontStyle=1;align=center;resizeLast=1;html=1;" parent="1" vertex="1">
          <mxGeometry x="252.5" y="640" width="150" height="110" as="geometry">
            <mxRectangle x="375" y="-90" width="90" height="30" as="alternateBounds" />
          </mxGeometry>
        </mxCell>
        <mxCell id="xt_DgVhSho2lv_pMH74G-20" value="" style="shape=tableRow;horizontal=0;startSize=0;swimlaneHead=0;swimlaneBody=0;fillColor=none;collapsible=0;dropTarget=0;points=[[0,0.5],[1,0.5]];portConstraint=eastwest;top=0;left=0;right=0;bottom=1;" parent="xt_DgVhSho2lv_pMH74G-19" vertex="1">
          <mxGeometry y="30" width="150" height="30" as="geometry" />
        </mxCell>
        <mxCell id="xt_DgVhSho2lv_pMH74G-21" value="PK" style="shape=partialRectangle;connectable=0;fillColor=none;top=0;left=0;bottom=0;right=0;fontStyle=1;overflow=hidden;whiteSpace=wrap;html=1;" parent="xt_DgVhSho2lv_pMH74G-20" vertex="1">
          <mxGeometry width="30" height="30" as="geometry">
            <mxRectangle width="30" height="30" as="alternateBounds" />
          </mxGeometry>
        </mxCell>
        <mxCell id="xt_DgVhSho2lv_pMH74G-22" value="UniqueID" style="shape=partialRectangle;connectable=0;fillColor=none;top=0;left=0;bottom=0;right=0;align=left;spacingLeft=6;fontStyle=5;overflow=hidden;whiteSpace=wrap;html=1;" parent="xt_DgVhSho2lv_pMH74G-20" vertex="1">
          <mxGeometry x="30" width="120" height="30" as="geometry">
            <mxRectangle width="120" height="30" as="alternateBounds" />
          </mxGeometry>
        </mxCell>
        <mxCell id="xt_DgVhSho2lv_pMH74G-23" value="" style="shape=tableRow;horizontal=0;startSize=0;swimlaneHead=0;swimlaneBody=0;fillColor=none;collapsible=0;dropTarget=0;points=[[0,0.5],[1,0.5]];portConstraint=eastwest;top=0;left=0;right=0;bottom=0;" parent="xt_DgVhSho2lv_pMH74G-19" vertex="1">
          <mxGeometry y="60" width="150" height="50" as="geometry" />
        </mxCell>
        <mxCell id="xt_DgVhSho2lv_pMH74G-24" value="" style="shape=partialRectangle;connectable=0;fillColor=none;top=0;left=0;bottom=0;right=0;editable=1;overflow=hidden;whiteSpace=wrap;html=1;" parent="xt_DgVhSho2lv_pMH74G-23" vertex="1">
          <mxGeometry width="30" height="50" as="geometry">
            <mxRectangle width="30" height="50" as="alternateBounds" />
          </mxGeometry>
        </mxCell>
        <mxCell id="xt_DgVhSho2lv_pMH74G-25" value="" style="shape=partialRectangle;connectable=0;fillColor=none;top=0;left=0;bottom=0;right=0;align=left;spacingLeft=6;overflow=hidden;whiteSpace=wrap;html=1;" parent="xt_DgVhSho2lv_pMH74G-23" vertex="1">
          <mxGeometry x="30" width="120" height="50" as="geometry">
            <mxRectangle width="120" height="50" as="alternateBounds" />
          </mxGeometry>
        </mxCell>
        <mxCell id="xt_DgVhSho2lv_pMH74G-55" value="1" style="text;html=1;align=center;verticalAlign=middle;resizable=0;points=[];autosize=1;strokeColor=none;fillColor=none;" parent="1" vertex="1">
          <mxGeometry x="30" y="380" width="30" height="30" as="geometry" />
        </mxCell>
        <mxCell id="xt_DgVhSho2lv_pMH74G-56" value="n" style="text;html=1;align=center;verticalAlign=middle;resizable=0;points=[];autosize=1;strokeColor=none;fillColor=none;" parent="1" vertex="1">
          <mxGeometry x="100" y="380" width="30" height="30" as="geometry" />
        </mxCell>
        <mxCell id="xt_DgVhSho2lv_pMH74G-58" value="Fecha entrada" style="ellipse;whiteSpace=wrap;html=1;align=center;" parent="1" vertex="1">
          <mxGeometry x="30" y="460" width="70" height="40" as="geometry" />
        </mxCell>
        <mxCell id="OWj89Fe97tDLUFW2SxCa-3" value="1" style="text;html=1;align=center;verticalAlign=middle;resizable=0;points=[];autosize=1;strokeColor=none;fillColor=none;" parent="1" vertex="1">
          <mxGeometry x="520" y="640" width="30" height="30" as="geometry" />
        </mxCell>
        <mxCell id="OWj89Fe97tDLUFW2SxCa-4" value="1" style="text;html=1;align=center;verticalAlign=middle;resizable=0;points=[];autosize=1;strokeColor=none;fillColor=none;" parent="1" vertex="1">
          <mxGeometry x="457" y="680" width="30" height="30" as="geometry" />
        </mxCell>
        <mxCell id="Ia-MXTWX2ccG5Ajcz-1V-2" value="Cantidad por 100g" style="ellipse;whiteSpace=wrap;html=1;align=center;" parent="1" vertex="1">
          <mxGeometry x="391" y="80" width="100" height="40" as="geometry" />
        </mxCell>
      </root>
    </mxGraphModel>
  </diagram>
</mxfile>
